<?xml version="1.0" encoding="UTF-8" standalone="no"?>
<!DOCTYPE svg PUBLIC "-//W3C//DTD SVG 1.1//EN"
 "http://www.w3.org/Graphics/SVG/1.1/DTD/svg11.dtd">
<!-- Generated by graphviz version 2.38.0 (20140413.2041)
 -->
<!-- Title: G Pages: 1 -->
<svg width="921pt" height="1077pt"
 viewBox="0.00 0.00 920.51 1077.00" xmlns="http://www.w3.org/2000/svg" xmlns:xlink="http://www.w3.org/1999/xlink">
<g id="graph0" class="graph" transform="scale(1 1) rotate(0) translate(4 1073)">
<title>G</title>
<polygon fill="white" stroke="none" points="-4,4 -4,-1073 916.513,-1073 916.513,4 -4,4"/>
<g id="clust1" class="cluster"><title>cluster_Global</title>
<path fill="none" stroke="gray" d="M311.836,-8C311.836,-8 892.513,-8 892.513,-8 898.513,-8 904.513,-14 904.513,-20 904.513,-20 904.513,-1049 904.513,-1049 904.513,-1055 898.513,-1061 892.513,-1061 892.513,-1061 311.836,-1061 311.836,-1061 305.836,-1061 299.836,-1055 299.836,-1049 299.836,-1049 299.836,-20 299.836,-20 299.836,-14 305.836,-8 311.836,-8"/>
<text text-anchor="middle" x="602.175" y="-1048.2" font-family="Times,serif" font-size="11.00" fill="gray">Global</text>
</g>
<g id="clust2" class="cluster"><title>cluster_\Commentia</title>
<path fill="none" stroke="gray" d="M635.574,-637C635.574,-637 784.994,-637 784.994,-637 790.994,-637 796.994,-643 796.994,-649 796.994,-649 796.994,-1022 796.994,-1022 796.994,-1028 790.994,-1034 784.994,-1034 784.994,-1034 635.574,-1034 635.574,-1034 629.574,-1034 623.574,-1028 623.574,-1022 623.574,-1022 623.574,-649 623.574,-649 623.574,-643 629.574,-637 635.574,-637"/>
<text text-anchor="middle" x="710.284" y="-1021.2" font-family="Times,serif" font-size="11.00" fill="gray">Commentia</text>
</g>
<g id="clust3" class="cluster"><title>cluster_\Commentia\Controllers</title>
<path fill="none" stroke="gray" d="M643.574,-936C643.574,-936 776.994,-936 776.994,-936 782.994,-936 788.994,-942 788.994,-948 788.994,-948 788.994,-995 788.994,-995 788.994,-1001 782.994,-1007 776.994,-1007 776.994,-1007 643.574,-1007 643.574,-1007 637.574,-1007 631.574,-1001 631.574,-995 631.574,-995 631.574,-948 631.574,-948 631.574,-942 637.574,-936 643.574,-936"/>
<text text-anchor="middle" x="710.284" y="-994.2" font-family="Times,serif" font-size="11.00" fill="gray">Controllers</text>
</g>
<g id="clust4" class="cluster"><title>cluster_\Commentia\Models</title>
<path fill="none" stroke="gray" d="M679.879,-803C679.879,-803 740.688,-803 740.688,-803 746.688,-803 752.688,-809 752.688,-815 752.688,-815 752.688,-916 752.688,-916 752.688,-922 746.688,-928 740.688,-928 740.688,-928 679.879,-928 679.879,-928 673.879,-928 667.879,-922 667.879,-916 667.879,-916 667.879,-815 667.879,-815 667.879,-809 673.879,-803 679.879,-803"/>
<text text-anchor="middle" x="710.284" y="-915.2" font-family="Times,serif" font-size="11.00" fill="gray">Models</text>
</g>
<g id="clust5" class="cluster"><title>cluster_\Commentia\Roles</title>
<path fill="none" stroke="gray" d="M687.284,-724C687.284,-724 733.284,-724 733.284,-724 739.284,-724 745.284,-730 745.284,-736 745.284,-736 745.284,-783 745.284,-783 745.284,-789 739.284,-795 733.284,-795 733.284,-795 687.284,-795 687.284,-795 681.284,-795 675.284,-789 675.284,-783 675.284,-783 675.284,-736 675.284,-736 675.284,-730 681.284,-724 687.284,-724"/>
<text text-anchor="middle" x="710.284" y="-782.2" font-family="Times,serif" font-size="11.00" fill="gray">Roles</text>
</g>
<g id="clust6" class="cluster"><title>cluster_\Commentia\Lexicon</title>
<path fill="none" stroke="gray" d="M683.18,-645C683.18,-645 737.387,-645 737.387,-645 743.387,-645 749.387,-651 749.387,-657 749.387,-657 749.387,-704 749.387,-704 749.387,-710 743.387,-716 737.387,-716 737.387,-716 683.18,-716 683.18,-716 677.18,-716 671.18,-710 671.18,-704 671.18,-704 671.18,-657 671.18,-657 671.18,-651 677.18,-645 683.18,-645"/>
<text text-anchor="middle" x="710.284" y="-703.2" font-family="Times,serif" font-size="11.00" fill="gray">Lexicon</text>
</g>
<g id="clust7" class="cluster"><title>cluster_\Markdownify</title>
<path fill="none" stroke="gray" d="M354.241,-504C354.241,-504 760.491,-504 760.491,-504 766.491,-504 772.491,-510 772.491,-516 772.491,-516 772.491,-617 772.491,-617 772.491,-623 766.491,-629 760.491,-629 760.491,-629 354.241,-629 354.241,-629 348.241,-629 342.241,-623 342.241,-617 342.241,-617 342.241,-516 342.241,-516 342.241,-510 348.241,-504 354.241,-504"/>
<text text-anchor="middle" x="557.366" y="-616.2" font-family="Times,serif" font-size="11.00" fill="gray">Markdownify</text>
</g>
<g id="clust8" class="cluster"><title>cluster_\Composer</title>
<path fill="none" stroke="gray" d="M661.978,-390C661.978,-390 758.59,-390 758.59,-390 764.59,-390 770.59,-396 770.59,-402 770.59,-402 770.59,-484 770.59,-484 770.59,-490 764.59,-496 758.59,-496 758.59,-496 661.978,-496 661.978,-496 655.978,-496 649.978,-490 649.978,-484 649.978,-484 649.978,-402 649.978,-402 649.978,-396 655.978,-390 661.978,-390"/>
<text text-anchor="middle" x="710.284" y="-483.2" font-family="Times,serif" font-size="11.00" fill="gray">Composer</text>
</g>
<g id="clust9" class="cluster"><title>cluster_\Composer\Autoload</title>
<path fill="none" stroke="gray" d="M669.978,-398C669.978,-398 750.59,-398 750.59,-398 756.59,-398 762.59,-404 762.59,-410 762.59,-410 762.59,-457 762.59,-457 762.59,-463 756.59,-469 750.59,-469 750.59,-469 669.978,-469 669.978,-469 663.978,-469 657.978,-463 657.978,-457 657.978,-457 657.978,-410 657.978,-410 657.978,-404 663.978,-398 669.978,-398"/>
<text text-anchor="middle" x="710.284" y="-456.2" font-family="Times,serif" font-size="11.00" fill="gray">Autoload</text>
</g>
<g id="clust12" class="cluster"><title>cluster_\Test</title>
<path fill="none" stroke="gray" d="M319.836,-222C319.836,-222 781.693,-222 781.693,-222 787.693,-222 793.693,-228 793.693,-234 793.693,-234 793.693,-370 793.693,-370 793.693,-376 787.693,-382 781.693,-382 781.693,-382 319.836,-382 319.836,-382 313.836,-382 307.836,-376 307.836,-370 307.836,-370 307.836,-234 307.836,-234 307.836,-228 313.836,-222 319.836,-222"/>
<text text-anchor="middle" x="550.765" y="-369.2" font-family="Times,serif" font-size="11.00" fill="gray">Test</text>
</g>
<g id="clust13" class="cluster"><title>cluster_\Test\Markdownify</title>
<path fill="none" stroke="gray" d="M327.836,-230C327.836,-230 773.693,-230 773.693,-230 779.693,-230 785.693,-236 785.693,-242 785.693,-242 785.693,-343 785.693,-343 785.693,-349 779.693,-355 773.693,-355 773.693,-355 327.836,-355 327.836,-355 321.836,-355 315.836,-349 315.836,-343 315.836,-343 315.836,-242 315.836,-242 315.836,-236 321.836,-230 327.836,-230"/>
<text text-anchor="middle" x="550.765" y="-342.2" font-family="Times,serif" font-size="11.00" fill="gray">Markdownify</text>
</g>
<!-- \\Commentia\\Controllers\\CommentiaController -->
<g id="node1" class="node"><title>\\Commentia\\Controllers\\CommentiaController</title>
<polygon fill="none" stroke="black" points="781.205,-980 639.363,-980 639.363,-944 781.205,-944 781.205,-980"/>
<text text-anchor="middle" x="710.284" y="-958.7" font-family="Courier,monospace" font-size="11.00">CommentiaController</text>
</g>
<!-- \\Commentia\\Models\\Members -->
<g id="node2" class="node"><title>\\Commentia\\Models\\Members</title>
<polygon fill="none" stroke="black" points="741.492,-901 679.076,-901 679.076,-865 741.492,-865 741.492,-901"/>
<text text-anchor="middle" x="710.284" y="-879.7" font-family="Courier,monospace" font-size="11.00">Members</text>
</g>
<!-- \\Commentia\\Models\\Comments -->
<g id="node3" class="node"><title>\\Commentia\\Models\\Comments</title>
<polygon fill="none" stroke="black" points="744.593,-847 675.975,-847 675.975,-811 744.593,-811 744.593,-847"/>
<text text-anchor="middle" x="710.284" y="-825.7" font-family="Courier,monospace" font-size="11.00">Comments</text>
</g>
<!-- \\Commentia\\Roles\\Roles -->
<g id="node4" class="node"><title>\\Commentia\\Roles\\Roles</title>
<polygon fill="none" stroke="black" points="737.284,-768 683.284,-768 683.284,-732 737.284,-732 737.284,-768"/>
<text text-anchor="middle" x="710.284" y="-746.7" font-family="Courier,monospace" font-size="11.00">Roles</text>
</g>
<!-- \\Commentia\\Lexicon\\Lexicon -->
<g id="node5" class="node"><title>\\Commentia\\Lexicon\\Lexicon</title>
<polygon fill="none" stroke="black" points="741.492,-689 679.076,-689 679.076,-653 741.492,-653 741.492,-689"/>
<text text-anchor="middle" x="710.284" y="-667.7" font-family="Courier,monospace" font-size="11.00">Lexicon</text>
</g>
<!-- \\Markdownify\\Converter -->
<g id="node6" class="node"><title>\\Markdownify\\Converter</title>
<polygon fill="none" stroke="black" points="425.856,-602 350.035,-602 350.035,-566 425.856,-566 425.856,-602"/>
<text text-anchor="middle" x="387.946" y="-580.7" font-family="Courier,monospace" font-size="11.00">Converter</text>
</g>
<!-- \\Markdownify\\ConverterExtra -->
<g id="node7" class="node"><title>\\Markdownify\\ConverterExtra</title>
<polygon fill="none" stroke="black" points="764.7,-602 655.868,-602 655.868,-566 764.7,-566 764.7,-602"/>
<text text-anchor="middle" x="710.284" y="-580.7" font-family="Courier,monospace" font-size="11.00">ConverterExtra</text>
</g>
<!-- \\Markdownify\\ConverterExtra&#45;&gt;\\Markdownify\\Converter -->
<g id="edge1" class="edge"><title>\\Markdownify\\ConverterExtra&#45;&gt;\\Markdownify\\Converter</title>
<path fill="none" stroke="black" d="M656.027,-584C594.6,-584 494.564,-584 435.925,-584"/>
<polygon fill="none" stroke="black" points="435.828,-580.5 425.828,-584 435.828,-587.5 435.828,-580.5"/>
</g>
<!-- \\Markdownify\\Parser -->
<g id="node8" class="node"><title>\\Markdownify\\Parser</title>
<polygon fill="none" stroke="black" points="737.892,-548 682.676,-548 682.676,-512 737.892,-512 737.892,-548"/>
<text text-anchor="middle" x="710.284" y="-526.7" font-family="Courier,monospace" font-size="11.00">Parser</text>
</g>
<!-- \\Composer\\Autoload\\ClassLoader -->
<g id="node9" class="node"><title>\\Composer\\Autoload\\ClassLoader</title>
<polygon fill="none" stroke="black" points="754.396,-442 666.171,-442 666.171,-406 754.396,-406 754.396,-442"/>
<text text-anchor="middle" x="710.284" y="-420.7" font-family="Courier,monospace" font-size="11.00">ClassLoader</text>
</g>
<!-- \\Test\\Markdownify\\ConverterTest -->
<g id="node10" class="node"><title>\\Test\\Markdownify\\ConverterTest</title>
<polygon fill="none" stroke="black" points="761.098,-328 659.47,-328 659.47,-292 761.098,-292 761.098,-328"/>
<text text-anchor="middle" x="710.284" y="-306.7" font-family="Courier,monospace" font-size="11.00">ConverterTest</text>
</g>
<!-- \\Test\\Markdownify\\ConverterTestCase -->
<g id="node12" class="node"><title>\\Test\\Markdownify\\ConverterTestCase</title>
<polygon fill="none" stroke="black" points="452.164,-274 323.727,-274 323.727,-238 452.164,-238 452.164,-274"/>
<text text-anchor="middle" x="387.946" y="-252.7" font-family="Courier,monospace" font-size="11.00">ConverterTestCase</text>
</g>
<!-- \\Test\\Markdownify\\ConverterTest&#45;&gt;\\Test\\Markdownify\\ConverterTestCase -->
<g id="edge2" class="edge"><title>\\Test\\Markdownify\\ConverterTest&#45;&gt;\\Test\\Markdownify\\ConverterTestCase</title>
<path fill="none" stroke="black" d="M659.25,-303.431C621.912,-298.353 569.689,-290.88 524.055,-283 503.991,-279.535 482.333,-275.39 462.358,-271.399"/>
<polygon fill="none" stroke="black" points="462.888,-267.936 452.394,-269.394 461.507,-274.798 462.888,-267.936"/>
</g>
<!-- \\Test\\Markdownify\\ConverterExtraTest -->
<g id="node11" class="node"><title>\\Test\\Markdownify\\ConverterExtraTest</title>
<polygon fill="none" stroke="black" points="777.603,-274 642.964,-274 642.964,-238 777.603,-238 777.603,-274"/>
<text text-anchor="middle" x="710.284" y="-252.7" font-family="Courier,monospace" font-size="11.00">ConverterExtraTest</text>
</g>
<!-- \\Test\\Markdownify\\ConverterExtraTest&#45;&gt;\\Test\\Markdownify\\ConverterTestCase -->
<g id="edge6" class="edge"><title>\\Test\\Markdownify\\ConverterExtraTest&#45;&gt;\\Test\\Markdownify\\ConverterTestCase</title>
<path fill="none" stroke="black" d="M642.909,-256C590.313,-256 516.883,-256 462.502,-256"/>
<polygon fill="none" stroke="black" points="462.236,-252.5 452.236,-256 462.236,-259.5 462.236,-252.5"/>
</g>
<!-- \\PHPUnit_Framework_TestCase -->
<g id="node18" class="node"><title>\\PHPUnit_Framework_TestCase</title>
<ellipse fill="none" stroke="black" cx="125.918" cy="-199" rx="125.837" ry="18"/>
<text text-anchor="middle" x="125.918" y="-194.8" font-family="Times,serif" font-size="14.00" fill="gray">\PHPUnit_Framework_TestCase</text>
</g>
<!-- \\Test\\Markdownify\\ConverterTestCase&#45;&gt;\\PHPUnit_Framework_TestCase -->
<g id="edge7" class="edge"><title>\\Test\\Markdownify\\ConverterTestCase&#45;&gt;\\PHPUnit_Framework_TestCase</title>
<path fill="none" stroke="black" d="M323.668,-242.129C288.065,-234.325 243.301,-224.512 205.469,-216.219"/>
<polygon fill="none" stroke="black" points="206.022,-212.757 195.504,-214.035 204.523,-219.595 206.022,-212.757"/>
</g>
<!-- \\Parsedown -->
<g id="node13" class="node"><title>\\Parsedown</title>
<polygon fill="none" stroke="black" points="425.856,-214 350.035,-214 350.035,-178 425.856,-178 425.856,-214"/>
<text text-anchor="middle" x="387.946" y="-192.7" font-family="Courier,monospace" font-size="11.00">Parsedown</text>
</g>
<!-- \\ParsedownTest -->
<g id="node14" class="node"><title>\\ParsedownTest</title>
<polygon fill="none" stroke="black" points="761.098,-160 659.47,-160 659.47,-124 761.098,-124 761.098,-160"/>
<text text-anchor="middle" x="710.284" y="-138.7" font-family="Courier,monospace" font-size="11.00">ParsedownTest</text>
</g>
<!-- \\ParsedownTest&#45;&gt;\\PHPUnit_Framework_TestCase -->
<g id="edge3" class="edge"><title>\\ParsedownTest&#45;&gt;\\PHPUnit_Framework_TestCase</title>
<path fill="none" stroke="black" d="M659.343,-136.215C595.848,-130.175 483.152,-123.873 388.946,-142"/>
</g>
<!-- \\TestParsedown -->
<g id="node15" class="node"><title>\\TestParsedown</title>
<polygon fill="none" stroke="black" points="761.098,-214 659.47,-214 659.47,-178 761.098,-178 761.098,-214"/>
<text text-anchor="middle" x="710.284" y="-192.7" font-family="Courier,monospace" font-size="11.00">TestParsedown</text>
</g>
<!-- \\TestParsedown&#45;&gt;\\Parsedown -->
<g id="edge4" class="edge"><title>\\TestParsedown&#45;&gt;\\Parsedown</title>
<path fill="none" stroke="black" d="M659.231,-196C598.143,-196 495.635,-196 435.96,-196"/>
<polygon fill="none" stroke="black" points="435.692,-192.5 425.692,-196 435.692,-199.5 435.692,-192.5"/>
</g>
<!-- \\ComposerAutoloaderInita072538e00e00a3c60c250d5d64c595f -->
<g id="node16" class="node"><title>\\ComposerAutoloaderInita072538e00e00a3c60c250d5d64c595f</title>
<polygon fill="none" stroke="black" points="896.742,-106 523.825,-106 523.825,-70 896.742,-70 896.742,-106"/>
<text text-anchor="middle" x="710.284" y="-84.7" font-family="Courier,monospace" font-size="11.00">ComposerAutoloaderInita072538e00e00a3c60c250d5d64c595f</text>
</g>
<!-- \\CommonMarkTest -->
<g id="node17" class="node"><title>\\CommonMarkTest</title>
<polygon fill="none" stroke="black" points="764.7,-52 655.868,-52 655.868,-16 764.7,-16 764.7,-52"/>
<text text-anchor="middle" x="710.284" y="-30.7" font-family="Courier,monospace" font-size="11.00">CommonMarkTest</text>
</g>
<!-- \\CommonMarkTest&#45;&gt;\\PHPUnit_Framework_TestCase -->
<g id="edge5" class="edge"><title>\\CommonMarkTest&#45;&gt;\\PHPUnit_Framework_TestCase</title>
<path fill="none" stroke="black" d="M386.946,-142C324.485,-154.018 254.028,-169.589 202.226,-181.419"/>
<polygon fill="none" stroke="black" points="201.416,-178.013 192.449,-183.657 202.978,-184.837 201.416,-178.013"/>
<path fill="none" stroke="black" d="M656.053,-36.1978C618.289,-39.0815 566.91,-45.7243 524.055,-61 458.106,-84.5071 457.697,-128.771 388.946,-142"/>
</g>
</g>
</svg>
