<?xml version="1.0" encoding="UTF-8" standalone="no"?>
<!DOCTYPE svg PUBLIC "-//W3C//DTD SVG 1.1//EN"
 "http://www.w3.org/Graphics/SVG/1.1/DTD/svg11.dtd">
<!-- Generated by graphviz version 2.38.0 (20140413.2041)
 -->
<!-- Title: G Pages: 1 -->
<svg width="921pt" height="1077pt"
 viewBox="0.00 0.00 920.51 1077.00" xmlns="http://www.w3.org/2000/svg" xmlns:xlink="http://www.w3.org/1999/xlink">
<g id="graph0" class="graph" transform="scale(1 1) rotate(0) translate(4 1073)">
<title>G</title>
<polygon fill="white" stroke="none" points="-4,4 -4,-1073 916.513,-1073 916.513,4 -4,4"/>
<g id="clust1" class="cluster"><title>cluster_Global</title>
<path fill="none" stroke="gray" d="M311.836,-8C311.836,-8 892.513,-8 892.513,-8 898.513,-8 904.513,-14 904.513,-20 904.513,-20 904.513,-1049 904.513,-1049 904.513,-1055 898.513,-1061 892.513,-1061 892.513,-1061 311.836,-1061 311.836,-1061 305.836,-1061 299.836,-1055 299.836,-1049 299.836,-1049 299.836,-20 299.836,-20 299.836,-14 305.836,-8 311.836,-8"/>
<text text-anchor="middle" x="602.175" y="-1048.2" font-family="Times,serif" font-size="11.00" fill="gray">Global</text>
</g>
<g id="clust2" class="cluster"><title>cluster_\Commentia</title>
<path fill="none" stroke="gray" d="M635.574,-637C635.574,-637 784.994,-637 784.994,-637 790.994,-637 796.994,-643 796.994,-649 796.994,-649 796.994,-1022 796.994,-1022 796.994,-1028 790.994,-1034 784.994,-1034 784.994,-1034 635.574,-1034 635.574,-1034 629.574,-1034 623.574,-1028 623.574,-1022 623.574,-1022 623.574,-649 623.574,-649 623.574,-643 629.574,-637 635.574,-637"/>
<text text-anchor="middle" x="710.284" y="-1021.2" font-family="Times,serif" font-size="11.00" fill="gray">Commentia</text>
</g>
<g id="clust3" class="cluster"><title>cluster_\Commentia\Controllers</title>
<path fill="none" stroke="gray" d="M643.574,-936C643.574,-936 776.994,-936 776.994,-936 782.994,-936 788.994,-942 788.994,-948 788.994,-948 788.994,-995 788.994,-995 788.994,-1001 782.994,-1007 776.994,-1007 776.994,-1007 643.574,-1007 643.574,-1007 637.574,-1007 631.574,-1001 631.574,-995 631.574,-995 631.574,-948 631.574,-948 631.574,-942 637.574,-936 643.574,-936"/>
<text text-anchor="middle" x="710.284" y="-994.2" font-family="Times,serif" font-size="11.00" fill="gray">Controllers</text>
</g>
<g id="clust4" class="cluster"><title>cluster_\Commentia\Lexicon</title>
<path fill="none" stroke="gray" d="M683.18,-857C683.18,-857 737.387,-857 737.387,-857 743.387,-857 749.387,-863 749.387,-869 749.387,-869 749.387,-916 749.387,-916 749.387,-922 743.387,-928 737.387,-928 737.387,-928 683.18,-928 683.18,-928 677.18,-928 671.18,-922 671.18,-916 671.18,-916 671.18,-869 671.18,-869 671.18,-863 677.18,-857 683.18,-857"/>
<text text-anchor="middle" x="710.284" y="-915.2" font-family="Times,serif" font-size="11.00" fill="gray">Lexicon</text>
</g>
<g id="clust5" class="cluster"><title>cluster_\Commentia\Models</title>
<path fill="none" stroke="gray" d="M679.879,-724C679.879,-724 740.688,-724 740.688,-724 746.688,-724 752.688,-730 752.688,-736 752.688,-736 752.688,-837 752.688,-837 752.688,-843 746.688,-849 740.688,-849 740.688,-849 679.879,-849 679.879,-849 673.879,-849 667.879,-843 667.879,-837 667.879,-837 667.879,-736 667.879,-736 667.879,-730 673.879,-724 679.879,-724"/>
<text text-anchor="middle" x="710.284" y="-836.2" font-family="Times,serif" font-size="11.00" fill="gray">Models</text>
</g>
<g id="clust6" class="cluster"><title>cluster_\Commentia\Roles</title>
<path fill="none" stroke="gray" d="M687.284,-645C687.284,-645 733.284,-645 733.284,-645 739.284,-645 745.284,-651 745.284,-657 745.284,-657 745.284,-704 745.284,-704 745.284,-710 739.284,-716 733.284,-716 733.284,-716 687.284,-716 687.284,-716 681.284,-716 675.284,-710 675.284,-704 675.284,-704 675.284,-657 675.284,-657 675.284,-651 681.284,-645 687.284,-645"/>
<text text-anchor="middle" x="710.284" y="-703.2" font-family="Times,serif" font-size="11.00" fill="gray">Roles</text>
</g>
<g id="clust7" class="cluster"><title>cluster_\Composer</title>
<path fill="none" stroke="gray" d="M661.978,-523C661.978,-523 758.59,-523 758.59,-523 764.59,-523 770.59,-529 770.59,-535 770.59,-535 770.59,-617 770.59,-617 770.59,-623 764.59,-629 758.59,-629 758.59,-629 661.978,-629 661.978,-629 655.978,-629 649.978,-623 649.978,-617 649.978,-617 649.978,-535 649.978,-535 649.978,-529 655.978,-523 661.978,-523"/>
<text text-anchor="middle" x="710.284" y="-616.2" font-family="Times,serif" font-size="11.00" fill="gray">Composer</text>
</g>
<g id="clust8" class="cluster"><title>cluster_\Composer\Autoload</title>
<path fill="none" stroke="gray" d="M669.978,-531C669.978,-531 750.59,-531 750.59,-531 756.59,-531 762.59,-537 762.59,-543 762.59,-543 762.59,-590 762.59,-590 762.59,-596 756.59,-602 750.59,-602 750.59,-602 669.978,-602 669.978,-602 663.978,-602 657.978,-596 657.978,-590 657.978,-590 657.978,-543 657.978,-543 657.978,-537 663.978,-531 669.978,-531"/>
<text text-anchor="middle" x="710.284" y="-589.2" font-family="Times,serif" font-size="11.00" fill="gray">Autoload</text>
</g>
<g id="clust11" class="cluster"><title>cluster_\Markdownify</title>
<path fill="none" stroke="gray" d="M354.241,-390C354.241,-390 760.491,-390 760.491,-390 766.491,-390 772.491,-396 772.491,-402 772.491,-402 772.491,-503 772.491,-503 772.491,-509 766.491,-515 760.491,-515 760.491,-515 354.241,-515 354.241,-515 348.241,-515 342.241,-509 342.241,-503 342.241,-503 342.241,-402 342.241,-402 342.241,-396 348.241,-390 354.241,-390"/>
<text text-anchor="middle" x="557.366" y="-502.2" font-family="Times,serif" font-size="11.00" fill="gray">Markdownify</text>
</g>
<g id="clust12" class="cluster"><title>cluster_\Test</title>
<path fill="none" stroke="gray" d="M319.836,-222C319.836,-222 781.693,-222 781.693,-222 787.693,-222 793.693,-228 793.693,-234 793.693,-234 793.693,-370 793.693,-370 793.693,-376 787.693,-382 781.693,-382 781.693,-382 319.836,-382 319.836,-382 313.836,-382 307.836,-376 307.836,-370 307.836,-370 307.836,-234 307.836,-234 307.836,-228 313.836,-222 319.836,-222"/>
<text text-anchor="middle" x="550.765" y="-369.2" font-family="Times,serif" font-size="11.00" fill="gray">Test</text>
</g>
<g id="clust13" class="cluster"><title>cluster_\Test\Markdownify</title>
<path fill="none" stroke="gray" d="M327.836,-230C327.836,-230 773.693,-230 773.693,-230 779.693,-230 785.693,-236 785.693,-242 785.693,-242 785.693,-343 785.693,-343 785.693,-349 779.693,-355 773.693,-355 773.693,-355 327.836,-355 327.836,-355 321.836,-355 315.836,-349 315.836,-343 315.836,-343 315.836,-242 315.836,-242 315.836,-236 321.836,-230 327.836,-230"/>
<text text-anchor="middle" x="550.765" y="-342.2" font-family="Times,serif" font-size="11.00" fill="gray">Markdownify</text>
</g>
<!-- \\Commentia\\Controllers\\CommentiaController -->
<g id="node1" class="node"><title>\\Commentia\\Controllers\\CommentiaController</title>
<polygon fill="none" stroke="black" points="781.205,-980 639.363,-980 639.363,-944 781.205,-944 781.205,-980"/>
<text text-anchor="middle" x="710.284" y="-958.7" font-family="Courier,monospace" font-size="11.00">CommentiaController</text>
</g>
<!-- \\Commentia\\Lexicon\\Lexicon -->
<g id="node2" class="node"><title>\\Commentia\\Lexicon\\Lexicon</title>
<polygon fill="none" stroke="black" points="741.492,-901 679.076,-901 679.076,-865 741.492,-865 741.492,-901"/>
<text text-anchor="middle" x="710.284" y="-879.7" font-family="Courier,monospace" font-size="11.00">Lexicon</text>
</g>
<!-- \\Commentia\\Models\\Comments -->
<g id="node3" class="node"><title>\\Commentia\\Models\\Comments</title>
<polygon fill="none" stroke="black" points="744.593,-822 675.975,-822 675.975,-786 744.593,-786 744.593,-822"/>
<text text-anchor="middle" x="710.284" y="-800.7" font-family="Courier,monospace" font-size="11.00">Comments</text>
</g>
<!-- \\Commentia\\Models\\Members -->
<g id="node4" class="node"><title>\\Commentia\\Models\\Members</title>
<polygon fill="none" stroke="black" points="741.492,-768 679.076,-768 679.076,-732 741.492,-732 741.492,-768"/>
<text text-anchor="middle" x="710.284" y="-746.7" font-family="Courier,monospace" font-size="11.00">Members</text>
</g>
<!-- \\Commentia\\Roles\\Roles -->
<g id="node5" class="node"><title>\\Commentia\\Roles\\Roles</title>
<polygon fill="none" stroke="black" points="737.284,-689 683.284,-689 683.284,-653 737.284,-653 737.284,-689"/>
<text text-anchor="middle" x="710.284" y="-667.7" font-family="Courier,monospace" font-size="11.00">Roles</text>
</g>
<!-- \\Composer\\Autoload\\ClassLoader -->
<g id="node6" class="node"><title>\\Composer\\Autoload\\ClassLoader</title>
<polygon fill="none" stroke="black" points="754.396,-575 666.171,-575 666.171,-539 754.396,-539 754.396,-575"/>
<text text-anchor="middle" x="710.284" y="-553.7" font-family="Courier,monospace" font-size="11.00">ClassLoader</text>
</g>
<!-- \\Markdownify\\Converter -->
<g id="node7" class="node"><title>\\Markdownify\\Converter</title>
<polygon fill="none" stroke="black" points="425.856,-488 350.035,-488 350.035,-452 425.856,-452 425.856,-488"/>
<text text-anchor="middle" x="387.946" y="-466.7" font-family="Courier,monospace" font-size="11.00">Converter</text>
</g>
<!-- \\Markdownify\\ConverterExtra -->
<g id="node8" class="node"><title>\\Markdownify\\ConverterExtra</title>
<polygon fill="none" stroke="black" points="764.7,-488 655.868,-488 655.868,-452 764.7,-452 764.7,-488"/>
<text text-anchor="middle" x="710.284" y="-466.7" font-family="Courier,monospace" font-size="11.00">ConverterExtra</text>
</g>
<!-- \\Markdownify\\ConverterExtra&#45;&gt;\\Markdownify\\Converter -->
<g id="edge4" class="edge"><title>\\Markdownify\\ConverterExtra&#45;&gt;\\Markdownify\\Converter</title>
<path fill="none" stroke="black" d="M656.027,-470C594.6,-470 494.564,-470 435.925,-470"/>
<polygon fill="none" stroke="black" points="435.828,-466.5 425.828,-470 435.828,-473.5 435.828,-466.5"/>
</g>
<!-- \\Markdownify\\Parser -->
<g id="node9" class="node"><title>\\Markdownify\\Parser</title>
<polygon fill="none" stroke="black" points="737.892,-434 682.676,-434 682.676,-398 737.892,-398 737.892,-434"/>
<text text-anchor="middle" x="710.284" y="-412.7" font-family="Courier,monospace" font-size="11.00">Parser</text>
</g>
<!-- \\Test\\Markdownify\\ConverterExtraTest -->
<g id="node10" class="node"><title>\\Test\\Markdownify\\ConverterExtraTest</title>
<polygon fill="none" stroke="black" points="777.603,-328 642.964,-328 642.964,-292 777.603,-292 777.603,-328"/>
<text text-anchor="middle" x="710.284" y="-306.7" font-family="Courier,monospace" font-size="11.00">ConverterExtraTest</text>
</g>
<!-- \\Test\\Markdownify\\ConverterTestCase -->
<g id="node12" class="node"><title>\\Test\\Markdownify\\ConverterTestCase</title>
<polygon fill="none" stroke="black" points="452.164,-274 323.727,-274 323.727,-238 452.164,-238 452.164,-274"/>
<text text-anchor="middle" x="387.946" y="-252.7" font-family="Courier,monospace" font-size="11.00">ConverterTestCase</text>
</g>
<!-- \\Test\\Markdownify\\ConverterExtraTest&#45;&gt;\\Test\\Markdownify\\ConverterTestCase -->
<g id="edge5" class="edge"><title>\\Test\\Markdownify\\ConverterExtraTest&#45;&gt;\\Test\\Markdownify\\ConverterTestCase</title>
<path fill="none" stroke="black" d="M642.708,-301.157C607.383,-296.248 563.284,-289.774 524.055,-283 503.991,-279.535 482.333,-275.39 462.358,-271.399"/>
<polygon fill="none" stroke="black" points="462.888,-267.936 452.394,-269.394 461.507,-274.798 462.888,-267.936"/>
</g>
<!-- \\Test\\Markdownify\\ConverterTest -->
<g id="node11" class="node"><title>\\Test\\Markdownify\\ConverterTest</title>
<polygon fill="none" stroke="black" points="761.098,-274 659.47,-274 659.47,-238 761.098,-238 761.098,-274"/>
<text text-anchor="middle" x="710.284" y="-252.7" font-family="Courier,monospace" font-size="11.00">ConverterTest</text>
</g>
<!-- \\Test\\Markdownify\\ConverterTest&#45;&gt;\\Test\\Markdownify\\ConverterTestCase -->
<g id="edge6" class="edge"><title>\\Test\\Markdownify\\ConverterTest&#45;&gt;\\Test\\Markdownify\\ConverterTestCase</title>
<path fill="none" stroke="black" d="M659.231,-256C606.417,-256 522.643,-256 462.355,-256"/>
<polygon fill="none" stroke="black" points="462.139,-252.5 452.138,-256 462.138,-259.5 462.139,-252.5"/>
</g>
<!-- \\PHPUnit_Framework_TestCase -->
<g id="node18" class="node"><title>\\PHPUnit_Framework_TestCase</title>
<ellipse fill="none" stroke="black" cx="125.918" cy="-172" rx="125.837" ry="18"/>
<text text-anchor="middle" x="125.918" y="-167.8" font-family="Times,serif" font-size="14.00" fill="gray">\PHPUnit_Framework_TestCase</text>
</g>
<!-- \\Test\\Markdownify\\ConverterTestCase&#45;&gt;\\PHPUnit_Framework_TestCase -->
<g id="edge7" class="edge"><title>\\Test\\Markdownify\\ConverterTestCase&#45;&gt;\\PHPUnit_Framework_TestCase</title>
<path fill="none" stroke="black" d="M323.469,-240.733C315.481,-238.587 307.446,-236.319 299.836,-234 259.16,-221.603 213.946,-205.3 179.956,-192.523"/>
<polygon fill="none" stroke="black" points="180.825,-189.11 170.234,-188.85 178.351,-195.659 180.825,-189.11"/>
</g>
<!-- \\ComposerAutoloaderInita072538e00e00a3c60c250d5d64c595f -->
<g id="node13" class="node"><title>\\ComposerAutoloaderInita072538e00e00a3c60c250d5d64c595f</title>
<polygon fill="none" stroke="black" points="896.742,-214 523.825,-214 523.825,-178 896.742,-178 896.742,-214"/>
<text text-anchor="middle" x="710.284" y="-192.7" font-family="Courier,monospace" font-size="11.00">ComposerAutoloaderInita072538e00e00a3c60c250d5d64c595f</text>
</g>
<!-- \\Parsedown -->
<g id="node14" class="node"><title>\\Parsedown</title>
<polygon fill="none" stroke="black" points="425.856,-160 350.035,-160 350.035,-124 425.856,-124 425.856,-160"/>
<text text-anchor="middle" x="387.946" y="-138.7" font-family="Courier,monospace" font-size="11.00">Parsedown</text>
</g>
<!-- \\CommonMarkTest -->
<g id="node15" class="node"><title>\\CommonMarkTest</title>
<polygon fill="none" stroke="black" points="764.7,-106 655.868,-106 655.868,-70 764.7,-70 764.7,-106"/>
<text text-anchor="middle" x="710.284" y="-84.7" font-family="Courier,monospace" font-size="11.00">CommonMarkTest</text>
</g>
<!-- \\CommonMarkTest&#45;&gt;\\PHPUnit_Framework_TestCase -->
<g id="edge1" class="edge"><title>\\CommonMarkTest&#45;&gt;\\PHPUnit_Framework_TestCase</title>
<path fill="none" stroke="black" d="M655.943,-81.6838C591.851,-75.5379 481.39,-69.559 388.946,-88"/>
</g>
<!-- \\ParsedownTest -->
<g id="node16" class="node"><title>\\ParsedownTest</title>
<polygon fill="none" stroke="black" points="761.098,-52 659.47,-52 659.47,-16 761.098,-16 761.098,-52"/>
<text text-anchor="middle" x="710.284" y="-30.7" font-family="Courier,monospace" font-size="11.00">ParsedownTest</text>
</g>
<!-- \\ParsedownTest&#45;&gt;\\PHPUnit_Framework_TestCase -->
<g id="edge2" class="edge"><title>\\ParsedownTest&#45;&gt;\\PHPUnit_Framework_TestCase</title>
<path fill="none" stroke="black" d="M386.946,-88C313.08,-102.735 230.821,-131.502 178.99,-151.229"/>
<polygon fill="none" stroke="black" points="177.441,-148.074 169.358,-154.924 179.949,-154.61 177.441,-148.074"/>
<path fill="none" stroke="black" d="M659.25,-40.569C621.912,-45.6467 569.689,-53.12 524.055,-61 463.712,-71.42 448.998,-76.0206 388.946,-88"/>
</g>
<!-- \\TestParsedown -->
<g id="node17" class="node"><title>\\TestParsedown</title>
<polygon fill="none" stroke="black" points="761.098,-160 659.47,-160 659.47,-124 761.098,-124 761.098,-160"/>
<text text-anchor="middle" x="710.284" y="-138.7" font-family="Courier,monospace" font-size="11.00">TestParsedown</text>
</g>
<!-- \\TestParsedown&#45;&gt;\\Parsedown -->
<g id="edge3" class="edge"><title>\\TestParsedown&#45;&gt;\\Parsedown</title>
<path fill="none" stroke="black" d="M659.231,-142C598.143,-142 495.635,-142 435.96,-142"/>
<polygon fill="none" stroke="black" points="435.692,-138.5 425.692,-142 435.692,-145.5 435.692,-138.5"/>
</g>
</g>
</svg>
